# xmcd
#
# Track frame offsets: 
#        150
#        17889
#        32362
#        42964
#        56692
#        69394
#        81738
#        96231
#        110004
#        121595
#        134053
#        145436
#        156435
#        174877
#        190860
#        202766
#        214678
#        226960
#        236660
#        249729
#
# Disc length: 3484 seconds
#
# Revision: 1
# Processed by: cddbd v1.5.2PL0 Copyright (c) Steve Scherf et al.
# Submitted via: ExactAudioCopy v1.0b3
#
DISCID=1e0d9a14
DTITLE=Various Artist - Ace Records Sampler Volume 4 - Soul and Funk
DYEAR=2005
DGENRE=Funk - Soul
TTITLE0=Dave Hamilton - Brother Ratt
TTITLE1=Bettye Swann - Make Me Yours
TTITLE2=Mary Love - Hey Stoney Face
TTITLE3=Bobby Angelle - Too Much For You
TTITLE4=Tobi Lark - Happiness Is Here
TTITLE5=The Persians - I Can't Take It Any More
TTITLE6=Phillip Mitchell - I'll See You In Hell First
TTITLE7=Johnny King And The Fatback Band - Peace, Love Not War
TTITLE8=Brenda George - What You See Is What You're Gonna Get
TTITLE9=Betty Barney - Momma Momma
TTITLE10=The Diplomats - Here's A Heart
TTITLE11=Reuben Bell and The Casanovas - It's Not That Easy
TTITLE12=Millie Jackson - Angel In Your Arms
TTITLE13=Ann Alford - Got To Get Me A Job
TTITLE14=Clay Hammond - My Jealous Girl
TTITLE15=James Carr - Pooring Water On A Drowning Man
TTITLE16=Z.Z. Hill - Have Mercy Someone
TTITLE17=Eddy Giles - Soul Feeling Part 1
TTITLE18=The Ikettes - I'm So Thankful
TTITLE19=John Edwards - Careful Man
EXTD=
EXTT0=
EXTT1=
EXTT2=
EXTT3=
EXTT4=
EXTT5=
EXTT6=
EXTT7=
EXTT8=
EXTT9=
EXTT10=
EXTT11=
EXTT12=
EXTT13=
EXTT14=
EXTT15=
EXTT16=
EXTT17=
EXTT18=
EXTT19=
PLAYORDER=
